<?xml version="1.0" encoding="UTF-8"?>
<svg xmlns="http://www.w3.org/2000/svg" xmlns:xlink="http://www.w3.org/1999/xlink" viewBox="0 0 40 40" width="40px" height="40px">
<g id="surface131465550">
<path style=" stroke:none;fill-rule:nonzero;fill:rgb(33.333334%,37.254903%,61.56863%);fill-opacity:1;" d="M 20 3.332031 C 10.796875 3.332031 3.332031 10.796875 3.332031 20 C 3.332031 29.203125 10.796875 36.667969 20 36.667969 C 29.203125 36.667969 36.667969 29.203125 36.667969 20 C 36.667969 10.796875 29.203125 3.332031 20 3.332031 Z M 14.398438 30.132812 L 20.335938 21.578125 C 20.433594 21.4375 20.335938 21.25 20.167969 21.25 L 12.382812 21.25 C 12.195312 21.25 12.105469 21.023438 12.238281 20.894531 L 24.070312 9.25 C 24.113281 9.203125 24.164062 9.1875 24.214844 9.1875 C 24.355469 9.1875 24.484375 9.335938 24.402344 9.492188 L 20.210938 17.613281 C 20.140625 17.75 20.238281 17.917969 20.394531 17.917969 L 27.796875 17.917969 C 27.988281 17.917969 28.078125 18.152344 27.9375 18.277344 L 14.710938 30.402344 C 14.667969 30.445312 14.617188 30.460938 14.570312 30.460938 C 14.421875 30.460938 14.289062 30.289062 14.398438 30.132812 Z M 14.398438 30.132812 "/>
</g>
</svg>
