<?xml version="1.0" encoding="UTF-8"?>
<svg xmlns="http://www.w3.org/2000/svg" xmlns:xlink="http://www.w3.org/1999/xlink" viewBox="0 0 40 40" width="40px" height="40px">
<g id="surface131757362">
<path style=" stroke:none;fill-rule:nonzero;fill:rgb(33.333334%,37.254903%,61.56863%);fill-opacity:1;" d="M 14.800781 1.601562 C 11.054688 1.601562 8 4.652344 8 8.398438 C 8 11.039062 9.558594 13.273438 11.765625 14.398438 C 9.558594 15.527344 8 17.761719 8 20.398438 C 8 23.039062 9.558594 25.273438 11.765625 26.398438 C 9.558594 27.527344 8 29.761719 8 32.398438 C 8 36.144531 11.054688 39.199219 14.800781 39.199219 C 18.546875 39.199219 21.601562 36.144531 21.601562 32.398438 L 21.601562 23.726562 C 22.671875 25.761719 24.746094 27.199219 27.199219 27.199219 C 30.726562 27.199219 33.601562 24.324219 33.601562 20.800781 C 33.601562 17.902344 31.621094 15.542969 28.972656 14.757812 C 31.644531 13.839844 33.601562 11.375 33.601562 8.398438 C 33.601562 4.652344 30.546875 1.601562 26.800781 1.601562 Z M 14.800781 3.199219 L 20 3.199219 L 20 13.601562 L 14.800781 13.601562 C 11.917969 13.601562 9.601562 11.28125 9.601562 8.398438 C 9.601562 5.519531 11.917969 3.199219 14.800781 3.199219 Z M 21.601562 3.199219 L 26.800781 3.199219 C 29.679688 3.199219 32 5.519531 32 8.398438 C 32 11.28125 29.679688 13.601562 26.800781 13.601562 L 21.601562 13.601562 Z M 14.800781 15.199219 L 20 15.199219 L 20 25.601562 L 14.800781 25.601562 C 11.917969 25.601562 9.601562 23.28125 9.601562 20.398438 C 9.601562 17.519531 11.917969 15.199219 14.800781 15.199219 Z M 21.601562 15.199219 L 24.273438 15.199219 C 23.128906 15.804688 22.203125 16.726562 21.601562 17.875 Z M 27.199219 16 C 29.859375 16 32 18.140625 32 20.800781 C 32 23.460938 29.859375 25.601562 27.199219 25.601562 C 24.539062 25.601562 22.398438 23.460938 22.398438 20.800781 C 22.398438 18.140625 24.539062 16 27.199219 16 Z M 14.800781 27.199219 L 20 27.199219 L 20 32.398438 C 20 35.28125 17.679688 37.601562 14.800781 37.601562 C 11.917969 37.601562 9.601562 35.28125 9.601562 32.398438 C 9.601562 29.519531 11.917969 27.199219 14.800781 27.199219 Z M 14.800781 27.199219 "/>
</g>
</svg>
