<?xml version="1.0" encoding="UTF-8"?>
<svg xmlns="http://www.w3.org/2000/svg" xmlns:xlink="http://www.w3.org/1999/xlink" viewBox="0 0 40 40" width="40px" height="40px">
<g id="surface131544191">
<path style=" stroke:none;fill-rule:nonzero;fill:rgb(33.333334%,37.254903%,61.56863%);fill-opacity:1;" d="M 37.433594 17.671875 L 22.328125 2.566406 C 21.6875 1.921875 20.84375 1.601562 20 1.601562 C 19.15625 1.601562 18.3125 1.921875 17.671875 2.566406 L 14.683594 5.554688 L 18.382812 9.25 C 19.609375 8.527344 21.210938 8.683594 22.261719 9.738281 C 23.316406 10.789062 23.46875 12.390625 22.746094 13.617188 L 26.382812 17.25 C 27.609375 16.527344 29.210938 16.683594 30.261719 17.738281 C 31.511719 18.988281 31.511719 21.011719 30.261719 22.261719 C 29.011719 23.511719 26.988281 23.511719 25.738281 22.261719 C 24.683594 21.210938 24.527344 19.609375 25.25 18.382812 L 21.617188 14.746094 C 21.355469 14.898438 21.085938 15.011719 20.800781 15.085938 L 20.800781 24.914062 C 22.179688 25.269531 23.199219 26.507812 23.199219 28 C 23.199219 29.769531 21.769531 31.199219 20 31.199219 C 18.230469 31.199219 16.800781 29.769531 16.800781 28 C 16.800781 26.507812 17.820312 25.269531 19.199219 24.914062 L 19.199219 15.085938 C 18.664062 14.945312 18.15625 14.679688 17.738281 14.261719 C 16.683594 13.210938 16.53125 11.609375 17.253906 10.382812 L 13.554688 6.683594 L 2.566406 17.671875 C 1.277344 18.957031 1.277344 21.042969 2.566406 22.328125 L 17.671875 37.433594 C 18.3125 38.078125 19.15625 38.398438 20 38.398438 C 20.84375 38.398438 21.6875 38.078125 22.328125 37.433594 L 37.433594 22.328125 C 38.722656 21.042969 38.722656 18.957031 37.433594 17.671875 Z M 37.433594 17.671875 "/>
</g>
</svg>
