<?xml version="1.0" encoding="UTF-8"?>
<svg xmlns="http://www.w3.org/2000/svg" xmlns:xlink="http://www.w3.org/1999/xlink" viewBox="0 0 40 40" width="40px" height="40px">
<g id="surface131619939">
<path style=" stroke:none;fill-rule:nonzero;fill:rgb(33.333334%,37.254903%,61.56863%);fill-opacity:1;" d="M 36.21875 1.859375 C 36.070312 1.695312 35.851562 1.601562 35.628906 1.601562 L 4.371094 1.601562 C 4.148438 1.601562 3.929688 1.695312 3.78125 1.859375 C 3.628906 2.023438 3.554688 2.246094 3.574219 2.472656 L 6.390625 34.011719 C 6.417969 34.34375 6.648438 34.617188 6.96875 34.710938 L 19.777344 38.367188 C 19.847656 38.390625 19.921875 38.398438 19.996094 38.398438 C 20.070312 38.398438 20.144531 38.390625 20.214844 38.367188 L 33.035156 34.710938 C 33.351562 34.617188 33.582031 34.34375 33.613281 34.011719 L 36.425781 2.472656 C 36.445312 2.246094 36.371094 2.023438 36.21875 1.859375 Z M 29.476562 12.734375 L 14.429688 12.734375 L 14.789062 16.804688 L 29.117188 16.804688 L 28.039062 28.839844 L 19.992188 31.273438 L 19.914062 31.246094 L 11.960938 28.835938 L 11.527344 23.933594 L 15.425781 23.933594 L 15.59375 25.835938 L 20.039062 26.769531 L 24.40625 25.835938 L 24.871094 20.6875 L 11.238281 20.6875 L 10.179688 8.84375 L 29.824219 8.84375 Z M 29.476562 12.734375 "/>
</g>
</svg>
