<?xml version="1.0" encoding="UTF-8"?>
<svg id="Layer_1" data-name="Layer 1" xmlns="http://www.w3.org/2000/svg" xmlns:xlink="http://www.w3.org/1999/xlink" viewBox="0 0 1462.81 389.56">
  <defs>
    <style>
      .cls-1 {
        fill: url(#linear-gradient);
      }

      .cls-2 {
        fill: #24efa1;
      }

      .cls-3 {
        fill: url(#linear-gradient-3);
      }

      .cls-4 {
        fill: url(#linear-gradient-4);
      }

      .cls-5 {
        fill: url(#linear-gradient-2);
      }
    </style>
    <linearGradient id="linear-gradient" x1="148.8" y1="304.88" x2="237.48" y2="262.63" gradientUnits="userSpaceOnUse">
      <stop offset=".21" stop-color="#009488"/>
      <stop offset=".84" stop-color="#24efa1" stop-opacity="0"/>
    </linearGradient>
    <linearGradient id="linear-gradient-2" x1="259.93" y1="215.53" x2="326.46" y2="263.61" gradientUnits="userSpaceOnUse">
      <stop offset=".16" stop-color="#009488"/>
      <stop offset=".68" stop-color="#24efa1" stop-opacity="0"/>
    </linearGradient>
    <linearGradient id="linear-gradient-3" x1="348.5" y1="251.18" x2="266.77" y2="251.18" gradientUnits="userSpaceOnUse">
      <stop offset=".32" stop-color="#009488"/>
      <stop offset=".68" stop-color="#24efa1" stop-opacity="0"/>
    </linearGradient>
    <linearGradient id="linear-gradient-4" x1="271.68" y1="211.43" x2="187.43" y2="296.65" gradientUnits="userSpaceOnUse">
      <stop offset=".12" stop-color="#009488"/>
      <stop offset=".68" stop-color="#24efa1" stop-opacity="0"/>
    </linearGradient>
  </defs>
  <g>
    <polygon class="cls-2" points="534.16 102 510.22 167.7 486.14 102 429.47 102 429.47 287.75 465.58 287.75 465.58 142.87 490.93 212.94 529.39 212.94 555.88 139.79 555.88 287.75 591.99 287.75 591.99 102 534.16 102"/>
    <path class="cls-2" d="M834.42,235.46l-49.22-133.46h-38.45c46.95,127.67,23.46,64.17,68.38,185.74h38.58l68.38-185.74h-38.45l-49.22,133.46Z"/>
    <rect class="cls-2" x="933.7" y="102" width="36.12" height="185.74"/>
    <path class="cls-2" d="M981.43,149.08v91.97c0,25.68,21.01,46.7,46.7,46.7h69.39v-36.12h-69.29c-5.88,0-10.69-4.81-10.69-10.69v-28.01h56.76v-38.7h-56.76v-25.05c0-6.11,4.96-11.07,11.07-11.07h68.9v-36.12h-69.01c-26,0-47.08,21.08-47.08,47.08Z"/>
    <path class="cls-2" d="M1145.24,241.58V102h-36.12V241.69c0,25.44,20.62,46.06,46.06,46.06h83.04v-36.12h-82.93c-5.55,0-10.05-4.5-10.05-10.05Z"/>
    <path class="cls-2" d="M1334.33,102h-37.42c-26,0-47.08,21.08-47.08,47.08v91.59c0,26,21.08,47.08,47.08,47.08h37.42c26,0,47.08-21.08,47.08-47.08v-91.59c0-26-21.08-47.08-47.08-47.08Zm10.96,138.56c0,6.11-4.96,11.07-11.07,11.07h-39.78c-6.11,0-11.07-4.96-11.07-11.07v-91.37c0-6.11,4.96-11.07,11.07-11.07h39.78c6.11,0,11.07,4.96,11.07,11.07v91.37Z"/>
    <polygon class="cls-2" points="692.6 102 673.56 102 604.9 287.75 644.02 287.75 692.6 156.39 727.83 251.63 692.6 251.63 692.6 287.75 741.67 287.75 758.26 287.75 780.31 287.75 711.65 102 692.6 102"/>
  </g>
  <g>
    <path class="cls-2" d="M221.77,224.83l-23.56,26.35h0l-38.74,43.33c-8.74,9.78-7.9,24.79,1.87,33.53,4.53,4.05,10.18,6.04,15.82,6.04,6.52,0,13.02-2.67,17.71-7.92l67.35-75.33-40.45-26.01Z"/>
    <path class="cls-1" d="M221.77,224.83l-23.56,26.35h0l-38.74,43.33c-8.74,9.78-7.9,24.79,1.87,33.53,4.53,4.05,10.18,6.04,15.82,6.04,6.52,0,13.02-2.67,17.71-7.92l67.35-75.33-40.45-26.01Z"/>
    <path class="cls-2" d="M321.22,284.58c3.72,2.12,7.77,3.14,11.76,3.14,8.24,0,16.13-4.49,20.51-12.15,6.19-10.78,2.68-25.7-8.7-32.21l-50.21-28.71-32.36,36.2,59,33.74Z"/>
    <path class="cls-5" d="M321.22,284.58c3.72,2.12,7.77,3.14,11.76,3.14,8.24,0,16.13-4.49,20.51-12.15,6.19-10.78,2.68-25.7-8.7-32.21l-50.21-28.71-32.36,36.2,59,33.74Z"/>
    <path class="cls-3" d="M321.22,284.58c3.72,2.12,7.77,3.14,11.76,3.14,8.24,0,16.13-4.49,20.51-12.15,6.19-10.78,2.68-25.7-8.7-32.21l-50.21-28.71-32.36,36.2,59,33.74Z"/>
    <path class="cls-4" d="M221.77,224.83l-23.56,26.35h0l-38.74,43.33c-8.74,9.78-7.9,24.79,1.87,33.53,4.53,4.05,10.18,6.04,15.82,6.04,6.52,0,13.02-2.67,17.71-7.92l67.35-75.33-40.45-26.01Z"/>
    <g>
      <path class="cls-2" d="M363.42,126.14c-.17-1.79-.54-3.52-1.09-5.18-.06-.19-.11-.39-.18-.58-.14-.39-.31-.76-.47-1.14-.14-.34-.27-.68-.43-1.02-.11-.23-.25-.45-.36-.68-.76-1.46-1.67-2.86-2.75-4.16-.25-.3-.47-.6-.74-.89-.18-.2-.38-.37-.56-.57-.37-.38-.73-.76-1.13-1.12-.03-.03-.05-.06-.08-.08-.18-.16-.37-.29-.55-.45-.39-.33-.78-.66-1.19-.96-.27-.2-.56-.38-.83-.57-.36-.25-.73-.49-1.1-.72-.32-.19-.66-.37-.99-.54-.35-.19-.69-.38-1.05-.54-.36-.17-.74-.32-1.11-.47-.34-.14-.68-.29-1.03-.41-.4-.14-.81-.26-1.23-.38-.33-.1-.66-.2-.99-.29-.45-.11-.91-.2-1.37-.28-.3-.06-.61-.13-.91-.17-.52-.08-1.05-.12-1.58-.16-.22-.02-.44-.06-.66-.07-.04,0-.07,0-.11,0-.55-.03-1.08-.01-1.62,0-.25,0-.51,0-.76,0-.51,.03-1.01,.09-1.51,.15-.43,.05-.86,.11-1.28,.18-.6,.1-1.2,.21-1.79,.36-.1,.03-.2,.06-.3,.09-3.71,.99-7.21,2.9-10.16,5.68-.4,.38-.8,.78-1.17,1.19,0,.01-.02,.02-.03,.03-.06,.07-.13,.12-.19,.19l-69.69,77.94L116.72,105.56c-11.38-6.51-25.89-2.56-32.4,8.82-4.98,8.71-3.13,13.84,2.09,26.62l69.17,179.22s.03,.05,.04,.08c.12,.25,.25,.49,.37,.73,.19,.39,.39,.77,.61,1.15,.14,.24,.28,.47,.42,.7,.28,.44,.57,.88,.88,1.31,.09,.13,.18,.26,.28,.39,.44,.58,.9,1.15,1.4,1.7,.05,.06,.1,.11,.16,.16,.47,.51,.97,1,1.5,1.48,.04,.04,.08,.08,.12,.12,.03,.03,.06,.05,.1,.08,.52,.46,1.06,.9,1.62,1.31,.55,.41,1.12,.79,1.69,1.15,.19,.12,.39,.23,.59,.34,.36,.21,.73,.41,1.1,.59,.25,.13,.5,.25,.75,.37,.36,.17,.72,.32,1.08,.46,.24,.1,.47,.2,.71,.29,.56,.21,1.13,.39,1.71,.55,.23,.07,.47,.12,.7,.18,.41,.1,.83,.2,1.24,.28,.22,.04,.44,.08,.66,.12,.49,.08,.98,.15,1.47,.2,.14,.01,.28,.03,.43,.05,.67,.06,1.33,.09,2.01,.09,2.35,0,4.72-.36,7.04-1.08,.09-.03,.17-.05,.26-.08,.65-.21,1.3-.46,1.93-.73,.16-.07,.31-.13,.47-.2,.06-.03,.11-.05,.17-.07,.24-.11,.47-.25,.71-.37,.45-.23,.91-.45,1.34-.7,.37-.22,.73-.47,1.1-.71,.31-.2,.62-.39,.92-.6,.66-.48,1.31-1,1.93-1.56,.63-.56,1.22-1.16,1.78-1.78,6.13-6.82,8-16.89,3.93-25.76l-40.39-116.38,103.85,66.77,50.44-56.41-3.49,68.06c-.67,13.1,9.45,24.56,22.55,25.23,.41,.02,.83,.03,1.24,.03,12.55,0,22.99-10.15,23.64-22.83l.11-2.24,6.83-133.04s0-.08,0-.12c.02-.52,.01-1.03,0-1.54,0-.28,0-.56,0-.84-.02-.34-.07-.66-.1-1Z"/>
      <path class="cls-2" d="M406.11,126.2l-7.85-58.04c-1.08-8.01-8.46-13.63-16.47-12.55l-58.04,7.85c-8.01,1.08-13.63,8.46-12.55,16.47,1.08,8.01,8.46,13.63,16.47,12.55l29.02-3.92c8.01-1.08,15.39,4.53,16.47,12.55l3.92,29.02c1.08,8.01,8.46,13.63,16.47,12.55,8.01-1.08,13.63-8.46,12.55-16.47Z"/>
    </g>
  </g>
</svg>