<?xml version="1.0" encoding="UTF-8"?>
<svg xmlns="http://www.w3.org/2000/svg" fill='#322938' xmlns:xlink="http://www.w3.org/1999/xlink" viewBox="0 0 40 40" width="40px" height="40px">
<g id="surface131636716">
<path style=" stroke:none;fill-rule:nonzero;fill:rgb(33.333334%,37.254903%,61.56863%);fill-opacity:1;" d="M 20 28.332031 C 9.25 28.332031 0.832031 24.667969 0.832031 20 C 0.832031 15.332031 9.25 11.667969 20 11.667969 C 30.75 11.667969 39.167969 15.332031 39.167969 20 C 39.167969 24.667969 30.75 28.332031 20 28.332031 Z M 20 13.332031 C 9.5 13.332031 2.5 16.75 2.5 20 C 2.5 23.25 9.5 26.667969 20 26.667969 C 30.5 26.667969 37.5 23.25 37.5 20 C 37.5 16.75 30.5 13.332031 20 13.332031 Z M 20 13.332031 "/>
<path style=" stroke:none;fill-rule:nonzero;fill:rgb(33.333334%,37.254903%,61.56863%);fill-opacity:1;" d="M 12.582031 37.167969 C 11.75 37.167969 11.082031 37 10.417969 36.582031 C 6.332031 34.25 7.417969 25.167969 12.75 15.832031 C 15.25 11.5 18.332031 7.832031 21.332031 5.5 C 24.582031 3 27.5 2.25 29.5 3.417969 C 31.582031 4.582031 32.332031 7.5 31.832031 11.582031 C 31.332031 15.417969 29.667969 19.917969 27.167969 24.25 C 24.667969 28.582031 21.582031 32.25 18.582031 34.582031 C 16.417969 36.25 14.332031 37.167969 12.582031 37.167969 Z M 27.417969 4.5 C 26.082031 4.5 24.332031 5.25 22.417969 6.75 C 19.582031 9 16.667969 12.5 14.25 16.667969 C 9 25.75 8.5 33.582031 11.25 35.167969 C 12.667969 36 15 35.25 17.582031 33.25 C 20.417969 31 23.332031 27.5 25.75 23.332031 C 28.167969 19.167969 29.75 14.917969 30.25 11.332031 C 30.667969 8 30.167969 5.667969 28.75 4.832031 C 28.332031 4.667969 27.917969 4.5 27.417969 4.5 Z M 27.417969 4.5 "/>
<path style=" stroke:none;fill-rule:nonzero;fill:rgb(33.333334%,37.254903%,61.56863%);fill-opacity:1;" d="M 27.5 37.167969 C 23.332031 37.167969 17.332031 32.082031 12.832031 24.167969 C 7.417969 14.832031 6.332031 5.75 10.417969 3.417969 C 14.5 1.082031 21.832031 6.5 27.25 15.832031 C 29.75 20.167969 31.417969 24.667969 31.917969 28.5 C 32.5 32.582031 31.667969 35.417969 29.582031 36.667969 C 28.917969 37 28.25 37.167969 27.5 37.167969 Z M 11.25 4.832031 C 8.5 6.417969 9 14.25 14.25 23.332031 C 19.5 32.417969 26 36.75 28.75 35.167969 C 30.167969 34.332031 30.667969 32 30.25 28.667969 C 29.75 25.082031 28.167969 20.832031 25.75 16.667969 C 20.5 7.582031 14 3.25 11.25 4.832031 Z M 11.25 4.832031 "/>
<path style=" stroke:none;fill-rule:nonzero;fill:rgb(33.333334%,37.254903%,61.56863%);fill-opacity:1;" d="M 23.332031 20 C 23.332031 21.839844 21.839844 23.332031 20 23.332031 C 18.160156 23.332031 16.667969 21.839844 16.667969 20 C 16.667969 18.160156 18.160156 16.667969 20 16.667969 C 21.839844 16.667969 23.332031 18.160156 23.332031 20 Z M 23.332031 20 "/>
</g>
</svg>
