<?xml version="1.0" encoding="UTF-8"?>
<svg xmlns="http://www.w3.org/2000/svg" xmlns:xlink="http://www.w3.org/1999/xlink" viewBox="0 0 40 40" width="40px" height="40px">
<g id="surface131425710">
<path style=" stroke:none;fill-rule:nonzero;fill:rgb(33.333334%,37.254903%,61.56863%);fill-opacity:1;" d="M 33.222656 21.628906 C 31.941406 21.636719 30.832031 21.945312 29.902344 22.402344 C 29.5625 21.722656 29.214844 21.125 29.160156 20.683594 C 29.089844 20.164062 29.011719 19.855469 29.09375 19.238281 C 29.175781 18.621094 29.535156 17.746094 29.527344 17.679688 C 29.523438 17.613281 29.449219 17.296875 28.710938 17.292969 C 27.96875 17.289062 27.335938 17.433594 27.261719 17.628906 C 27.1875 17.824219 27.046875 18.265625 26.957031 18.722656 C 26.828125 19.390625 25.484375 21.785156 24.71875 23.035156 C 24.46875 22.546875 24.253906 22.113281 24.210938 21.773438 C 24.144531 21.257812 24.066406 20.945312 24.148438 20.328125 C 24.230469 19.710938 24.585938 18.835938 24.582031 18.769531 C 24.578125 18.703125 24.5 18.390625 23.761719 18.386719 C 23.023438 18.378906 22.390625 18.527344 22.316406 18.722656 C 22.242188 18.917969 22.164062 19.375 22.011719 19.816406 C 21.859375 20.253906 20.070312 24.242188 19.601562 25.277344 C 19.363281 25.804688 19.15625 26.226562 19.007812 26.515625 C 19.007812 26.515625 19 26.535156 18.984375 26.566406 C 18.859375 26.8125 18.785156 26.949219 18.785156 26.949219 C 18.785156 26.949219 18.785156 26.949219 18.785156 26.953125 C 18.6875 27.132812 18.578125 27.300781 18.527344 27.300781 C 18.488281 27.300781 18.414062 26.820312 18.542969 26.160156 C 18.808594 24.777344 19.449219 22.621094 19.441406 22.546875 C 19.4375 22.507812 19.5625 22.128906 19.023438 21.933594 C 18.503906 21.742188 18.316406 22.0625 18.269531 22.0625 C 18.222656 22.0625 18.191406 22.175781 18.191406 22.175781 C 18.191406 22.175781 18.769531 19.75 17.082031 19.75 C 16.023438 19.75 14.5625 20.90625 13.839844 21.953125 C 13.386719 22.199219 12.410156 22.734375 11.378906 23.300781 C 10.984375 23.519531 10.578125 23.742188 10.191406 23.953125 C 10.167969 23.921875 10.140625 23.894531 10.113281 23.867188 C 8.066406 21.679688 4.277344 20.132812 4.4375 17.195312 C 4.496094 16.125 4.867188 13.3125 11.714844 9.902344 C 17.324219 7.105469 21.816406 7.875 22.589844 9.578125 C 23.699219 12.015625 20.191406 16.542969 14.367188 17.195312 C 12.148438 17.445312 10.976562 16.582031 10.6875 16.261719 C 10.382812 15.925781 10.335938 15.910156 10.222656 15.972656 C 10.035156 16.078125 10.152344 16.375 10.222656 16.550781 C 10.394531 17.003906 11.109375 17.808594 12.324219 18.207031 C 13.398438 18.558594 16.003906 18.75 19.152344 17.53125 C 22.683594 16.167969 25.4375 12.371094 24.628906 9.195312 C 23.804688 5.964844 18.453125 4.90625 13.386719 6.703125 C 10.367188 7.777344 7.101562 9.457031 4.753906 11.652344 C 1.964844 14.261719 1.519531 16.535156 1.703125 17.484375 C 2.355469 20.859375 7.003906 23.054688 8.863281 24.683594 C 8.773438 24.734375 8.6875 24.78125 8.609375 24.824219 C 7.675781 25.285156 4.128906 27.140625 3.246094 29.101562 C 2.238281 31.324219 3.402344 32.917969 4.175781 33.132812 C 6.566406 33.796875 9.019531 32.601562 10.339844 30.632812 C 11.65625 28.667969 11.496094 26.109375 10.890625 24.9375 C 10.882812 24.925781 10.875 24.910156 10.867188 24.894531 C 11.109375 24.753906 11.355469 24.609375 11.597656 24.464844 C 12.074219 24.1875 12.539062 23.925781 12.945312 23.707031 C 12.71875 24.324219 12.550781 25.070312 12.464844 26.144531 C 12.363281 27.40625 12.882812 29.035156 13.558594 29.679688 C 13.855469 29.960938 14.214844 29.96875 14.441406 29.96875 C 15.230469 29.96875 15.589844 29.3125 15.984375 28.539062 C 16.46875 27.585938 16.898438 26.480469 16.898438 26.480469 C 16.898438 26.480469 16.359375 29.46875 17.832031 29.46875 C 18.367188 29.46875 18.90625 28.773438 19.148438 28.417969 C 19.148438 28.421875 19.148438 28.425781 19.148438 28.425781 C 19.148438 28.425781 19.164062 28.402344 19.191406 28.355469 C 19.246094 28.269531 19.277344 28.214844 19.277344 28.214844 C 19.277344 28.214844 19.277344 28.210938 19.28125 28.199219 C 19.496094 27.828125 19.976562 26.972656 20.691406 25.566406 C 21.617188 23.746094 22.507812 21.46875 22.507812 21.46875 C 22.507812 21.46875 22.589844 22.027344 22.859375 22.949219 C 23.019531 23.488281 23.359375 24.089844 23.625 24.664062 C 23.410156 24.960938 23.277344 25.132812 23.277344 25.132812 C 23.277344 25.132812 23.277344 25.136719 23.28125 25.140625 C 23.109375 25.371094 22.917969 25.617188 22.714844 25.855469 C 21.984375 26.726562 21.113281 27.722656 20.996094 28.007812 C 20.859375 28.347656 20.890625 28.59375 21.15625 28.796875 C 21.351562 28.941406 21.695312 28.964844 22.058594 28.941406 C 22.714844 28.898438 23.175781 28.734375 23.40625 28.632812 C 23.761719 28.507812 24.175781 28.3125 24.5625 28.023438 C 25.28125 27.496094 25.714844 26.742188 25.671875 25.742188 C 25.648438 25.191406 25.472656 24.648438 25.25 24.132812 C 25.316406 24.039062 25.378906 23.941406 25.445312 23.847656 C 26.578125 22.195312 27.453125 20.378906 27.453125 20.378906 C 27.453125 20.378906 27.539062 20.933594 27.808594 21.855469 C 27.945312 22.324219 28.214844 22.832031 28.460938 23.328125 C 27.394531 24.195312 26.738281 25.199219 26.507812 25.855469 C 26.085938 27.074219 26.414062 27.625 27.039062 27.753906 C 27.320312 27.808594 27.71875 27.679688 28.015625 27.554688 C 28.390625 27.429688 28.835938 27.222656 29.253906 26.917969 C 29.972656 26.390625 30.664062 25.652344 30.621094 24.652344 C 30.601562 24.195312 30.476562 23.746094 30.3125 23.3125 C 31.210938 22.9375 32.378906 22.726562 33.867188 22.902344 C 37.054688 23.273438 37.679688 25.265625 37.5625 26.097656 C 37.441406 26.929688 36.773438 27.390625 36.546875 27.527344 C 36.324219 27.664062 36.257812 27.714844 36.273438 27.816406 C 36.300781 27.964844 36.40625 27.960938 36.597656 27.929688 C 36.859375 27.882812 38.269531 27.25 38.332031 25.710938 C 38.40625 23.757812 36.535156 21.613281 33.222656 21.628906 Z M 8.640625 29.917969 C 7.585938 31.070312 6.109375 31.503906 5.476562 31.136719 C 4.792969 30.742188 5.0625 29.046875 6.359375 27.820312 C 7.148438 27.078125 8.171875 26.390625 8.847656 25.96875 C 9 25.875 9.226562 25.738281 9.5 25.574219 C 9.546875 25.546875 9.574219 25.535156 9.574219 25.535156 L 9.574219 25.53125 C 9.625 25.5 9.679688 25.46875 9.734375 25.433594 C 10.207031 27.175781 9.75 28.707031 8.640625 29.917969 Z M 16.335938 24.6875 C 15.96875 25.582031 15.199219 27.878906 14.730469 27.753906 C 14.328125 27.648438 14.082031 25.902344 14.652344 24.1875 C 14.9375 23.324219 15.546875 22.289062 15.902344 21.890625 C 16.480469 21.246094 17.117188 21.035156 17.269531 21.296875 C 17.464844 21.628906 16.566406 24.125 16.335938 24.6875 Z M 22.695312 27.71875 C 22.539062 27.800781 22.394531 27.851562 22.328125 27.8125 C 22.28125 27.785156 22.394531 27.675781 22.394531 27.675781 C 22.394531 27.675781 23.1875 26.820312 23.503906 26.429688 C 23.683594 26.203125 23.894531 25.933594 24.125 25.636719 C 24.128906 25.664062 24.128906 25.695312 24.128906 25.722656 C 24.125 26.75 23.136719 27.441406 22.695312 27.71875 Z M 27.59375 26.601562 C 27.476562 26.519531 27.496094 26.253906 27.878906 25.417969 C 28.027344 25.089844 28.371094 24.539062 28.964844 24.011719 C 29.035156 24.230469 29.078125 24.4375 29.078125 24.628906 C 29.070312 25.921875 28.148438 26.402344 27.59375 26.601562 Z M 27.59375 26.601562 "/>
</g>
</svg>
