<?xml version="1.0" encoding="UTF-8"?>
<svg xmlns="http://www.w3.org/2000/svg" xmlns:xlink="http://www.w3.org/1999/xlink" viewBox="0 0 40 40" width="40px" height="40px">
<g id="surface140528724">
<path style=" stroke:none;fill-rule:nonzero;fill:rgb(33.333334%,37.254903%,61.56863%);fill-opacity:1;" d="M 36 3.199219 L 4 3.199219 C 3.558594 3.199219 3.199219 3.558594 3.199219 4 L 3.199219 36 C 3.199219 36.441406 3.558594 36.800781 4 36.800781 L 36 36.800781 C 36.441406 36.800781 36.800781 36.441406 36.800781 36 L 36.800781 4 C 36.800781 3.558594 36.441406 3.199219 36 3.199219 Z M 23.199219 21.15625 L 19.199219 21.15625 L 19.199219 33.601562 L 16 33.601562 L 16 21.15625 L 12 21.15625 L 12 18.398438 L 23.199219 18.398438 Z M 24.097656 32.890625 L 24.097656 29.5625 C 24.097656 29.5625 25.914062 30.933594 28.09375 30.933594 C 30.273438 30.933594 30.191406 29.507812 30.191406 29.3125 C 30.191406 27.242188 24.011719 27.242188 24.011719 22.660156 C 24.011719 16.425781 33.011719 18.886719 33.011719 18.886719 L 32.902344 21.847656 C 32.902344 21.847656 31.390625 20.84375 29.6875 20.84375 C 27.980469 20.84375 27.367188 21.652344 27.367188 22.519531 C 27.367188 24.757812 33.597656 24.53125 33.597656 29.03125 C 33.601562 35.964844 24.097656 32.890625 24.097656 32.890625 Z M 24.097656 32.890625 "/>
</g>
</svg>
